<?xml version="1.0" standalone="no"?>
<!DOCTYPE svg PUBLIC "-//W3C//DTD SVG 20010904//EN"
 "http://www.w3.org/TR/2001/REC-SVG-20010904/DTD/svg10.dtd">
<svg version="1.0" xmlns="http://www.w3.org/2000/svg"
 width="2024.000000pt" height="1368.000000pt" viewBox="0 0 2024.000000 1368.000000"
 preserveAspectRatio="xMidYMid meet">

<g transform="translate(0.000000,1368.000000) scale(0.100000,-0.100000)"
fill="#000000" stroke="none">
<path d="M2787 10478 l-2 -3193 -771 -2325 -771 -2325 -36 -3 c-26 -2 -44 -12
-66 -38 -42 -47 -45 -65 -27 -181 10 -72 12 -111 5 -139 -19 -75 -26 -113 -21
-119 3 -3 18 -5 34 -5 81 0 120 137 87 304 -7 31 -9 59 -6 62 14 14 91 -26
235 -123 85 -57 176 -115 202 -128 44 -22 49 -28 60 -77 7 -29 20 -65 28 -80
15 -26 66 -58 92 -58 7 0 9 -8 5 -19 -16 -53 26 -66 127 -40 39 10 82 16 97
13 69 -17 208 -123 242 -185 10 -20 9 -21 -28 -15 -71 12 -207 10 -231 -3 -25
-13 -48 -60 -35 -71 14 -13 280 -43 332 -38 35 4 59 12 76 28 50 47 24 118
-80 229 -36 38 -65 72 -65 77 0 8 191 614 196 622 2 4 1674 -39 1719 -44 38
-5 42 -8 72 -72 17 -37 48 -121 68 -187 80 -264 158 -497 209 -623 l53 -132
-20 -58 c-32 -91 -6 -167 69 -198 44 -18 108 -18 124 1 10 12 7 18 -21 32
-134 72 -114 145 63 237 110 58 156 89 260 173 43 34 92 70 109 78 43 23 104
21 162 -4 101 -44 130 -21 181 143 38 122 61 156 105 156 27 0 121 -61 121
-78 0 -5 -15 -13 -33 -20 -78 -28 -157 -145 -157 -232 0 -90 32 -92 83 -4 16
27 47 68 69 91 36 37 45 41 90 41 27 1 56 6 64 13 12 10 14 -10 14 -139 l0
-150 -39 5 c-29 4 -59 -3 -125 -30 -71 -29 -86 -32 -82 -19 3 9 8 35 12 57 7
37 6 39 -10 26 -33 -28 -67 -99 -64 -133 3 -32 4 -33 48 -32 25 1 81 14 123
29 43 15 80 25 82 23 2 -2 -14 -42 -36 -88 -51 -109 -51 -157 -1 -182 52 -25
86 -10 163 74 46 50 68 68 73 59 5 -7 11 -52 15 -99 8 -89 28 -145 56 -156 9
-3 32 -6 50 -6 46 0 76 39 108 143 45 141 71 135 87 -19 15 -143 39 -184 110
-184 77 0 93 32 100 189 3 82 9 126 17 128 16 6 50 -33 85 -100 52 -96 108
-122 164 -74 23 20 26 30 25 83 0 33 -7 77 -16 97 -20 49 -20 48 20 76 27 18
39 21 47 13 7 -7 27 -12 45 -12 39 0 39 -3 13 -62 -10 -24 -17 -55 -14 -69 15
-68 27 -109 34 -109 5 0 11 23 15 50 9 62 51 148 86 173 33 24 93 36 180 37
56 0 72 -4 113 -30 52 -33 87 -93 78 -136 -8 -44 -202 -191 -378 -287 -55 -30
-153 -85 -219 -122 -157 -90 -255 -134 -518 -239 -341 -135 -444 -187 -607
-305 -97 -69 -164 -101 -220 -102 -25 -1 -56 -4 -69 -8 -22 -6 -19 -8 27 -30
97 -45 170 -23 346 106 117 86 251 150 591 283 272 105 642 300 885 464 112
75 210 164 210 190 0 21 10 20 26 -1 35 -46 9 -101 -83 -175 -270 -218 -889
-545 -1333 -703 -120 -42 -192 -82 -340 -189 -125 -90 -251 -156 -312 -163
-56 -7 -89 21 -112 92 -29 89 -47 96 -66 25 -37 -137 94 -252 240 -210 19 6
91 17 159 26 68 8 230 32 360 54 460 76 1020 148 1361 176 107 8 196 17 198
19 22 22 -514 26 -788 6 -128 -9 -656 -54 -877 -74 -18 -2 -33 0 -33 4 0 10
60 53 105 76 22 11 90 39 150 61 485 178 1160 539 1389 744 80 71 110 126 102
186 -15 114 -130 278 -238 337 -48 27 -61 30 -138 28 -47 -1 -118 -10 -157
-21 l-73 -18 0 1051 0 1052 26 63 c118 290 301 512 509 616 122 60 207 77 360
71 205 -9 310 -52 441 -182 65 -64 89 -97 122 -165 41 -85 72 -190 93 -310 7
-42 14 -398 19 -1015 6 -803 10 -965 23 -1045 33 -194 87 -336 172 -456 148
-207 441 -308 845 -291 393 17 520 71 1057 449 l142 100 -151 302 c-82 165
-152 303 -153 304 -2 2 -38 -20 -80 -48 -138 -93 -173 -105 -305 -105 -110 0
-118 1 -182 33 -110 54 -179 135 -206 242 -8 31 -13 306 -16 905 -2 528 -8
893 -15 945 -37 298 -123 549 -259 754 -63 96 -210 243 -302 301 -133 85 -298
147 -485 181 -146 27 -586 27 -730 0 -295 -55 -538 -185 -832 -445 l-93 -82 0
204 0 203 -35 17 c-32 15 -90 17 -575 17 l-540 0 0 -1595 0 -1595 -54 53 c-62
63 -126 97 -199 106 l-52 6 -47 145 c-54 165 -1504 4826 -1514 4865 l-6 25
1306 0 1306 0 0 495 0 495 -1325 0 -1325 0 0 2690 0 2690 -585 0 -585 0 -3
-3192z m877 -5913 c152 -528 279 -966 281 -972 3 -10 -119 -13 -591 -13 -583
0 -595 0 -592 19 9 56 614 1947 619 1937 4 -6 131 -443 283 -971z m2206 -3089
c0 -31 -36 -93 -47 -82 -6 5 36 116 43 116 2 0 4 -15 4 -34z"/>
<path d="M9030 10395 l0 -3185 579 0 578 0 7 133 c3 72 9 172 13 220 l6 89 76
-75 c358 -349 653 -467 1163 -467 354 0 617 52 873 174 212 101 349 200 511
369 300 311 479 748 546 1332 18 161 15 580 -5 736 -59 441 -193 792 -420
1094 -82 110 -243 266 -357 348 -113 80 -338 193 -469 237 -394 129 -908 132
-1256 8 -207 -74 -442 -231 -604 -405 l-91 -98 0 1312 0 1312 -37 26 -38 25
-537 0 -538 0 0 -3185z m2373 255 c159 -35 276 -106 414 -255 43 -46 100 -120
127 -164 201 -333 279 -855 192 -1292 -59 -301 -170 -537 -334 -711 -189 -200
-371 -278 -648 -278 -226 0 -385 50 -535 168 -275 217 -423 590 -436 1099 -6
209 4 328 42 518 33 160 65 258 130 390 131 265 346 463 565 520 145 38 320
40 483 5z"/>
<path d="M18175 11584 c-334 -36 -579 -103 -828 -228 -381 -192 -668 -478
-856 -855 -130 -259 -197 -496 -237 -839 -21 -182 -15 -610 10 -767 110 -675
459 -1171 1016 -1446 362 -178 764 -257 1265 -246 332 7 662 55 880 128 191
64 485 228 485 272 0 16 -143 852 -155 904 -5 21 -11 18 -100 -42 -171 -116
-335 -183 -568 -230 -310 -62 -641 -50 -888 34 -340 115 -568 352 -683 711
-19 58 -37 120 -41 138 l-7 32 1340 0 1340 0 26 31 c26 30 26 33 26 187 0 526
-83 937 -260 1297 -246 499 -645 801 -1195 901 -87 16 -474 28 -570 18z m340
-940 c221 -59 405 -247 496 -508 32 -93 59 -216 59 -272 l0 -34 -776 0 -776 0
7 46 c11 79 54 206 99 301 130 269 314 428 555 479 82 17 252 11 336 -12z"/>
<path d="M16040 11490 c-275 -29 -518 -117 -706 -255 -142 -106 -233 -203
-347 -375 l-57 -85 0 296 0 295 -35 17 c-32 15 -90 17 -570 17 l-535 0 -2
-3347 -3 -3347 -65 90 c-191 262 -485 464 -801 549 -272 73 -698 74 -1004 3
-805 -187 -1324 -819 -1440 -1755 -19 -154 -22 -498 -5 -670 84 -855 433
-1434 1044 -1728 486 -234 1205 -247 1635 -31 131 67 214 126 368 263 l82 74
40 -69 c136 -234 292 -343 566 -398 110 -22 445 -25 570 -6 163 26 349 108
620 272 112 68 732 478 783 518 l24 19 -42 82 c-55 110 -119 283 -170 461 -23
80 -44 147 -45 149 -2 2 -41 -24 -87 -57 -303 -218 -598 -406 -694 -441 -61
-23 -137 -27 -195 -9 l-39 11 0 3931 0 3931 65 87 c71 94 157 178 246 238 130
89 339 173 499 201 84 14 301 18 400 7 l65 -8 77 158 c42 86 105 200 140 252
94 141 266 306 438 421 22 14 21 15 -38 62 -77 60 -224 131 -327 158 -93 24
-317 33 -455 19z m-3150 -6930 c295 -61 546 -316 678 -690 119 -340 141 -795
56 -1170 -94 -415 -329 -714 -635 -808 -94 -29 -255 -46 -358 -38 -250 21
-398 92 -577 277 -177 185 -287 428 -351 779 -24 136 -24 456 1 605 46 282
115 476 233 662 47 76 213 239 285 281 81 48 188 90 271 106 108 21 284 19
397 -4z"/>
<path d="M6830 9693 c0 -1180 3 -1736 11 -1798 18 -144 54 -271 110 -384 114
-231 302 -350 617 -392 114 -15 439 -6 556 15 101 19 241 69 304 109 l42 27 0
419 0 419 -57 -5 c-152 -13 -320 66 -388 182 -58 97 -55 13 -55 1607 l0 1468
-40 20 c-38 19 -57 20 -570 20 l-530 0 0 -1707z"/>
<path d="M17820 5384 c-783 -110 -1369 -570 -1644 -1291 -114 -300 -162 -614
-153 -993 10 -411 80 -706 244 -1035 287 -576 788 -927 1473 -1032 160 -24
556 -24 725 0 374 55 692 178 968 374 101 72 294 263 371 366 311 418 461 978
426 1586 -17 297 -64 529 -156 766 -108 275 -241 487 -428 683 -283 294 -650
486 -1076 562 -164 30 -585 37 -750 14z m486 -909 c220 -37 409 -196 536 -450
138 -273 197 -683 153 -1057 -44 -374 -149 -624 -341 -809 -156 -149 -295
-203 -524 -202 -239 1 -366 55 -535 227 -205 210 -310 480 -347 894 -31 348
70 783 241 1042 50 77 154 184 229 237 160 115 365 156 588 118z"/>
<path d="M944 2086 c-59 -19 -123 -66 -193 -142 -108 -118 -142 -184 -107
-213 22 -18 59 2 102 55 79 97 170 181 219 203 84 37 94 47 86 78 -9 33 -43
39 -107 19z"/>
<path d="M997 1802 c-66 -45 -81 -112 -47 -212 36 -108 91 -160 167 -160 40 0
126 43 151 75 52 66 52 151 1 209 -78 89 -209 131 -272 88z m207 -93 c53 -46
63 -105 31 -182 -11 -26 -64 -50 -111 -50 -135 0 -174 195 -50 249 52 22 91
17 130 -17z"/>
<path d="M1925 1675 c-31 -18 -66 -26 -154 -34 -145 -14 -191 -34 -221 -97
-14 -27 -20 -54 -16 -68 18 -73 86 -92 202 -57 56 17 76 20 98 11 26 -10 27
-12 14 -33 -21 -31 -56 -46 -143 -61 -81 -14 -110 -32 -118 -74 -8 -41 0 -43
48 -18 24 13 77 29 117 36 135 21 171 48 172 131 1 42 -3 54 -23 70 -37 30
-68 33 -145 15 -87 -20 -146 -21 -146 -3 0 41 110 87 208 87 37 0 78 6 91 13
33 17 63 60 59 85 -3 20 -3 20 -43 -3z"/>
<path d="M535 1667 c-95 -54 -128 -176 -86 -313 19 -59 43 -105 114 -216 20
-31 59 -103 87 -160 27 -57 81 -161 120 -233 71 -131 112 -241 123 -326 l6
-46 -152 -6 c-84 -4 -253 -10 -377 -13 -124 -4 -230 -10 -236 -15 -6 -5 -35
-14 -65 -20 l-54 -12 32 -13 c17 -7 96 -23 175 -34 78 -12 222 -34 318 -50
242 -39 355 -51 495 -51 66 1 144 -4 175 -11 36 -7 66 -8 83 -2 26 9 27 10 11
33 -9 12 -66 46 -128 76 -111 52 -156 88 -174 135 -5 14 -22 75 -37 135 -22
91 -44 143 -128 305 -55 107 -134 251 -175 319 -94 156 -123 222 -129 291 -5
51 -2 62 45 153 l50 97 -27 0 c-14 0 -44 -10 -66 -23z"/>
<path d="M635 1527 c-41 -71 -36 -89 71 -249 118 -176 161 -260 259 -509 43
-106 88 -216 102 -243 52 -103 183 -191 332 -222 104 -21 312 -19 510 6 91 11
167 23 170 26 3 2 -2 11 -11 20 -26 26 -87 34 -188 23 -52 -6 -164 -13 -247
-16 -175 -7 -246 4 -340 48 -129 61 -202 166 -268 386 -63 209 -88 259 -232
466 -114 164 -128 196 -114 252 14 55 14 55 -4 55 -8 0 -26 -20 -40 -43z"/>
<path d="M4840 1301 c0 -16 16 -70 35 -119 19 -50 62 -182 94 -294 100 -344
208 -547 283 -536 42 6 35 51 -28 173 -72 139 -90 189 -174 467 -91 298 -112
338 -182 338 -24 0 -28 -4 -28 -29z"/>
<path d="M5213 1240 c-41 -25 -63 -59 -70 -108 -4 -32 3 -56 35 -125 24 -51
50 -92 66 -102 86 -56 215 -23 262 67 18 35 18 121 -1 157 -32 62 -147 131
-220 131 -22 0 -54 -9 -72 -20z m214 -91 c61 -58 70 -129 23 -183 -57 -65
-157 -66 -207 -2 -49 62 -33 147 37 194 44 30 109 26 147 -9z"/>
<path d="M1740 1203 c-58 -19 -139 -68 -144 -87 -17 -65 0 -107 51 -127 34
-13 175 -10 260 5 l71 13 -14 -22 c-17 -26 -101 -72 -191 -104 -78 -29 -103
-52 -103 -95 0 -59 70 -106 155 -106 17 0 50 10 75 21 49 23 148 59 162 59 4
0 8 -11 8 -24 0 -45 23 -56 120 -56 49 0 92 -5 95 -10 9 -15 25 -2 25 20 0 28
-41 50 -105 57 -54 6 -57 7 -72 45 -25 64 -76 62 -215 -8 -77 -39 -114 -42
-159 -15 -36 22 -39 20 71 62 103 39 146 65 188 113 39 44 40 65 6 105 -31 37
-32 37 -170 10 -107 -21 -163 -20 -190 2 -22 18 5 42 84 75 83 35 113 53 106
65 -5 9 -88 11 -114 2z"/>
<path d="M2347 662 c-4 -5 0 -15 8 -22 24 -20 18 -35 -22 -57 -41 -23 -80 -61
-109 -107 l-18 -29 24 13 c13 7 49 29 80 49 52 34 59 36 140 36 72 0 94 -5
148 -29 82 -38 100 -65 108 -159 12 -132 -1 -146 -158 -173 -81 -14 -137 -15
-438 -8 -553 14 -606 12 -594 -20 3 -8 24 -22 46 -31 100 -40 775 -61 979 -30
118 18 205 50 230 85 26 35 34 140 19 230 -10 62 -18 79 -51 115 -60 65 -210
131 -325 142 -37 3 -64 2 -67 -5z"/>
</g>
</svg>
